<mxfile host="app.diagrams.net" modified="2024-06-30T15:05:11.597Z" agent="Mozilla/5.0 (X11; Linux x86_64) AppleWebKit/537.36 (KHTML, like Gecko) Chrome/126.0.0.0 Safari/537.36" etag="vrSp9OsTbLMQ3CUCPy1Y" version="24.6.4" type="device">
  <diagram name="Page-1" id="wDgwUH4yZrsznBnCyvqJ">
    <mxGraphModel dx="1510" dy="869" grid="1" gridSize="10" guides="1" tooltips="1" connect="1" arrows="1" fold="1" page="1" pageScale="1" pageWidth="850" pageHeight="1100" math="0" shadow="0">
      <root>
        <mxCell id="0" />
        <mxCell id="1" parent="0" />
        <mxCell id="YPFUfWVb4xvoclRdpn4Y-2" value="Start" style="strokeWidth=2;html=1;shape=mxgraph.flowchart.start_1;whiteSpace=wrap;" vertex="1" parent="1">
          <mxGeometry x="331.25" y="20" width="100" height="60" as="geometry" />
        </mxCell>
        <mxCell id="YPFUfWVb4xvoclRdpn4Y-3" value="End" style="strokeWidth=2;html=1;shape=mxgraph.flowchart.start_1;whiteSpace=wrap;" vertex="1" parent="1">
          <mxGeometry x="325" y="880" width="100" height="60" as="geometry" />
        </mxCell>
        <mxCell id="YPFUfWVb4xvoclRdpn4Y-14" style="edgeStyle=orthogonalEdgeStyle;rounded=0;orthogonalLoop=1;jettySize=auto;html=1;exitX=0.5;exitY=1;exitDx=0;exitDy=0;entryX=0.5;entryY=0;entryDx=0;entryDy=0;" edge="1" parent="1" source="YPFUfWVb4xvoclRdpn4Y-4" target="YPFUfWVb4xvoclRdpn4Y-5">
          <mxGeometry relative="1" as="geometry" />
        </mxCell>
        <mxCell id="YPFUfWVb4xvoclRdpn4Y-4" value="Pilih 1 dari 3 gambar (Gambar 2)" style="shape=parallelogram;perimeter=parallelogramPerimeter;whiteSpace=wrap;html=1;fixedSize=1;" vertex="1" parent="1">
          <mxGeometry x="276.25" y="210" width="197.5" height="60" as="geometry" />
        </mxCell>
        <mxCell id="YPFUfWVb4xvoclRdpn4Y-15" style="edgeStyle=orthogonalEdgeStyle;rounded=0;orthogonalLoop=1;jettySize=auto;html=1;entryX=0.5;entryY=0;entryDx=0;entryDy=0;exitX=0.5;exitY=1;exitDx=0;exitDy=0;" edge="1" parent="1" source="YPFUfWVb4xvoclRdpn4Y-21" target="YPFUfWVb4xvoclRdpn4Y-6">
          <mxGeometry relative="1" as="geometry">
            <mxPoint x="380" y="420" as="sourcePoint" />
          </mxGeometry>
        </mxCell>
        <mxCell id="YPFUfWVb4xvoclRdpn4Y-22" style="edgeStyle=orthogonalEdgeStyle;rounded=0;orthogonalLoop=1;jettySize=auto;html=1;exitX=0.5;exitY=1;exitDx=0;exitDy=0;entryX=0.5;entryY=0;entryDx=0;entryDy=0;" edge="1" parent="1" source="YPFUfWVb4xvoclRdpn4Y-5" target="YPFUfWVb4xvoclRdpn4Y-21">
          <mxGeometry relative="1" as="geometry" />
        </mxCell>
        <mxCell id="YPFUfWVb4xvoclRdpn4Y-5" value="Tabel Citra dan Form Input Muncul" style="rounded=0;whiteSpace=wrap;html=1;" vertex="1" parent="1">
          <mxGeometry x="315" y="330" width="120" height="60" as="geometry" />
        </mxCell>
        <mxCell id="YPFUfWVb4xvoclRdpn4Y-28" style="edgeStyle=orthogonalEdgeStyle;rounded=0;orthogonalLoop=1;jettySize=auto;html=1;exitX=0.5;exitY=1;exitDx=0;exitDy=0;entryX=0.5;entryY=0;entryDx=0;entryDy=0;" edge="1" parent="1" source="YPFUfWVb4xvoclRdpn4Y-6" target="YPFUfWVb4xvoclRdpn4Y-27">
          <mxGeometry relative="1" as="geometry" />
        </mxCell>
        <mxCell id="YPFUfWVb4xvoclRdpn4Y-6" value="Ubah nilai citra warna" style="shape=parallelogram;perimeter=parallelogramPerimeter;whiteSpace=wrap;html=1;fixedSize=1;" vertex="1" parent="1">
          <mxGeometry x="282.5" y="460" width="185" height="60" as="geometry" />
        </mxCell>
        <mxCell id="YPFUfWVb4xvoclRdpn4Y-17" style="edgeStyle=orthogonalEdgeStyle;rounded=0;orthogonalLoop=1;jettySize=auto;html=1;exitX=0.5;exitY=1;exitDx=0;exitDy=0;entryX=0.5;entryY=0;entryDx=0;entryDy=0;" edge="1" parent="1" source="YPFUfWVb4xvoclRdpn4Y-7" target="YPFUfWVb4xvoclRdpn4Y-9">
          <mxGeometry relative="1" as="geometry" />
        </mxCell>
        <mxCell id="YPFUfWVb4xvoclRdpn4Y-7" value="Tekan Tombol Play" style="shape=parallelogram;perimeter=parallelogramPerimeter;whiteSpace=wrap;html=1;fixedSize=1;" vertex="1" parent="1">
          <mxGeometry x="282.5" y="640" width="185" height="60" as="geometry" />
        </mxCell>
        <mxCell id="YPFUfWVb4xvoclRdpn4Y-18" style="edgeStyle=orthogonalEdgeStyle;rounded=0;orthogonalLoop=1;jettySize=auto;html=1;exitX=1;exitY=0.5;exitDx=0;exitDy=0;entryX=0;entryY=0.5;entryDx=0;entryDy=0;" edge="1" parent="1" source="YPFUfWVb4xvoclRdpn4Y-9" target="YPFUfWVb4xvoclRdpn4Y-19">
          <mxGeometry relative="1" as="geometry">
            <mxPoint x="510" y="660" as="targetPoint" />
          </mxGeometry>
        </mxCell>
        <mxCell id="YPFUfWVb4xvoclRdpn4Y-9" value="Proses mengubah citra graysclae menjadi citra negatif" style="rounded=0;whiteSpace=wrap;html=1;" vertex="1" parent="1">
          <mxGeometry x="315" y="730" width="120" height="60" as="geometry" />
        </mxCell>
        <mxCell id="YPFUfWVb4xvoclRdpn4Y-23" style="edgeStyle=orthogonalEdgeStyle;rounded=0;orthogonalLoop=1;jettySize=auto;html=1;exitX=0.5;exitY=0;exitDx=0;exitDy=0;entryX=1;entryY=0.5;entryDx=0;entryDy=0;" edge="1" parent="1" source="YPFUfWVb4xvoclRdpn4Y-19" target="YPFUfWVb4xvoclRdpn4Y-27">
          <mxGeometry relative="1" as="geometry" />
        </mxCell>
        <mxCell id="YPFUfWVb4xvoclRdpn4Y-24" value="Ya" style="edgeLabel;html=1;align=center;verticalAlign=middle;resizable=0;points=[];" vertex="1" connectable="0" parent="YPFUfWVb4xvoclRdpn4Y-23">
          <mxGeometry x="0.4015" relative="1" as="geometry">
            <mxPoint as="offset" />
          </mxGeometry>
        </mxCell>
        <mxCell id="YPFUfWVb4xvoclRdpn4Y-30" style="edgeStyle=orthogonalEdgeStyle;rounded=0;orthogonalLoop=1;jettySize=auto;html=1;exitX=1;exitY=0.5;exitDx=0;exitDy=0;entryX=0;entryY=0.5;entryDx=0;entryDy=0;" edge="1" parent="1" source="YPFUfWVb4xvoclRdpn4Y-19" target="YPFUfWVb4xvoclRdpn4Y-29">
          <mxGeometry relative="1" as="geometry" />
        </mxCell>
        <mxCell id="YPFUfWVb4xvoclRdpn4Y-19" value="Pause" style="rhombus;whiteSpace=wrap;html=1;" vertex="1" parent="1">
          <mxGeometry x="490" y="680" width="80" height="80" as="geometry" />
        </mxCell>
        <mxCell id="YPFUfWVb4xvoclRdpn4Y-21" value="" style="ellipse;whiteSpace=wrap;html=1;aspect=fixed;" vertex="1" parent="1">
          <mxGeometry x="365" y="420" width="20" height="20" as="geometry" />
        </mxCell>
        <mxCell id="YPFUfWVb4xvoclRdpn4Y-25" style="edgeStyle=orthogonalEdgeStyle;rounded=0;orthogonalLoop=1;jettySize=auto;html=1;exitX=0.5;exitY=1;exitDx=0;exitDy=0;entryX=1;entryY=0.5;entryDx=0;entryDy=0;entryPerimeter=0;" edge="1" parent="1" source="YPFUfWVb4xvoclRdpn4Y-19">
          <mxGeometry relative="1" as="geometry">
            <mxPoint x="425" y="910" as="targetPoint" />
          </mxGeometry>
        </mxCell>
        <mxCell id="YPFUfWVb4xvoclRdpn4Y-26" value="Tidak" style="edgeLabel;html=1;align=center;verticalAlign=middle;resizable=0;points=[];" vertex="1" connectable="0" parent="YPFUfWVb4xvoclRdpn4Y-25">
          <mxGeometry x="-0.3883" y="1" relative="1" as="geometry">
            <mxPoint as="offset" />
          </mxGeometry>
        </mxCell>
        <mxCell id="YPFUfWVb4xvoclRdpn4Y-44" style="edgeStyle=orthogonalEdgeStyle;rounded=0;orthogonalLoop=1;jettySize=auto;html=1;exitX=0.5;exitY=1;exitDx=0;exitDy=0;entryX=0.5;entryY=0;entryDx=0;entryDy=0;" edge="1" parent="1" source="YPFUfWVb4xvoclRdpn4Y-27" target="YPFUfWVb4xvoclRdpn4Y-7">
          <mxGeometry relative="1" as="geometry" />
        </mxCell>
        <mxCell id="YPFUfWVb4xvoclRdpn4Y-27" value="" style="ellipse;whiteSpace=wrap;html=1;aspect=fixed;" vertex="1" parent="1">
          <mxGeometry x="365" y="550" width="20" height="20" as="geometry" />
        </mxCell>
        <mxCell id="YPFUfWVb4xvoclRdpn4Y-32" style="edgeStyle=orthogonalEdgeStyle;rounded=0;orthogonalLoop=1;jettySize=auto;html=1;exitX=0.5;exitY=0;exitDx=0;exitDy=0;entryX=1;entryY=0.5;entryDx=0;entryDy=0;" edge="1" parent="1" source="YPFUfWVb4xvoclRdpn4Y-29" target="YPFUfWVb4xvoclRdpn4Y-21">
          <mxGeometry relative="1" as="geometry" />
        </mxCell>
        <mxCell id="YPFUfWVb4xvoclRdpn4Y-33" value="Ya" style="edgeLabel;html=1;align=center;verticalAlign=middle;resizable=0;points=[];" vertex="1" connectable="0" parent="YPFUfWVb4xvoclRdpn4Y-32">
          <mxGeometry x="-0.451" relative="1" as="geometry">
            <mxPoint as="offset" />
          </mxGeometry>
        </mxCell>
        <mxCell id="YPFUfWVb4xvoclRdpn4Y-29" value="Stop" style="rhombus;whiteSpace=wrap;html=1;" vertex="1" parent="1">
          <mxGeometry x="610" y="680" width="80" height="80" as="geometry" />
        </mxCell>
        <mxCell id="YPFUfWVb4xvoclRdpn4Y-31" style="edgeStyle=orthogonalEdgeStyle;rounded=0;orthogonalLoop=1;jettySize=auto;html=1;exitX=0.75;exitY=1;exitDx=0;exitDy=0;entryX=0.5;entryY=1;entryDx=0;entryDy=0;jumpStyle=arc;" edge="1" parent="1" source="YPFUfWVb4xvoclRdpn4Y-9" target="YPFUfWVb4xvoclRdpn4Y-29">
          <mxGeometry relative="1" as="geometry">
            <mxPoint x="435" y="730" as="sourcePoint" />
            <mxPoint x="688.6399999999999" y="740.52" as="targetPoint" />
          </mxGeometry>
        </mxCell>
        <mxCell id="YPFUfWVb4xvoclRdpn4Y-34" style="edgeStyle=orthogonalEdgeStyle;rounded=0;orthogonalLoop=1;jettySize=auto;html=1;exitX=0.5;exitY=1;exitDx=0;exitDy=0;entryX=0.5;entryY=0;entryDx=0;entryDy=0;entryPerimeter=0;" edge="1" parent="1" source="YPFUfWVb4xvoclRdpn4Y-29">
          <mxGeometry relative="1" as="geometry">
            <mxPoint x="375" y="880" as="targetPoint" />
          </mxGeometry>
        </mxCell>
        <mxCell id="YPFUfWVb4xvoclRdpn4Y-35" value="Tidak" style="edgeLabel;html=1;align=center;verticalAlign=middle;resizable=0;points=[];" vertex="1" connectable="0" parent="YPFUfWVb4xvoclRdpn4Y-34">
          <mxGeometry x="0.1749" relative="1" as="geometry">
            <mxPoint as="offset" />
          </mxGeometry>
        </mxCell>
        <mxCell id="YPFUfWVb4xvoclRdpn4Y-43" style="edgeStyle=orthogonalEdgeStyle;rounded=0;orthogonalLoop=1;jettySize=auto;html=1;exitX=0.5;exitY=1;exitDx=0;exitDy=0;entryX=0.5;entryY=0;entryDx=0;entryDy=0;" edge="1" parent="1" source="YPFUfWVb4xvoclRdpn4Y-41" target="YPFUfWVb4xvoclRdpn4Y-4">
          <mxGeometry relative="1" as="geometry" />
        </mxCell>
        <mxCell id="YPFUfWVb4xvoclRdpn4Y-41" value="Pilih 1 dari 3 gambar (Gambar 1)" style="shape=parallelogram;perimeter=parallelogramPerimeter;whiteSpace=wrap;html=1;fixedSize=1;" vertex="1" parent="1">
          <mxGeometry x="276.25" y="120" width="197.5" height="60" as="geometry" />
        </mxCell>
        <mxCell id="YPFUfWVb4xvoclRdpn4Y-42" style="edgeStyle=orthogonalEdgeStyle;rounded=0;orthogonalLoop=1;jettySize=auto;html=1;exitX=0.5;exitY=1;exitDx=0;exitDy=0;exitPerimeter=0;entryX=0.535;entryY=0.017;entryDx=0;entryDy=0;entryPerimeter=0;" edge="1" parent="1" source="YPFUfWVb4xvoclRdpn4Y-2" target="YPFUfWVb4xvoclRdpn4Y-41">
          <mxGeometry relative="1" as="geometry" />
        </mxCell>
      </root>
    </mxGraphModel>
  </diagram>
</mxfile>
